<svg width="28" height="28" viewBox="0 0 28 28" fill="none" xmlns="http://www.w3.org/2000/svg">
<g clip-path="url(#clip0_67_34)">
<circle cx="14" cy="14" r="14" fill="#004458"/>
<path d="M19.5 7C20.163 7 20.7989 7.28365 21.2678 7.78856C21.7366 8.29346 22 8.97826 22 9.69231V18.3077C22 19.0217 21.7366 19.7065 21.2678 20.2114C20.7989 20.7163 20.163 21 19.5 21H8.5C7.83696 21 7.20107 20.7163 6.73223 20.2114C6.26339 19.7065 6 19.0217 6 18.3077V9.69231C6 8.97826 6.26339 8.29346 6.73223 7.78856C7.20107 7.28365 7.83696 7 8.5 7H19.5ZM21 11.2657L14.254 15.5411C14.1902 15.5814 14.1189 15.606 14.0453 15.6131C13.9716 15.6201 13.8974 15.6095 13.828 15.582L13.746 15.5411L7 11.2678V18.3077C7 18.7361 7.15804 19.147 7.43934 19.4499C7.72064 19.7529 8.10218 19.9231 8.5 19.9231H19.5C19.8978 19.9231 20.2794 19.7529 20.5607 19.4499C20.842 19.147 21 18.7361 21 18.3077V11.2657ZM19.5 8.07692H8.5C8.10218 8.07692 7.72064 8.24711 7.43934 8.55006C7.15804 8.853 7 9.26388 7 9.69231V10.0175L14 14.4523L21 10.0154V9.69231C21 9.26388 20.842 8.853 20.5607 8.55006C20.2794 8.24711 19.8978 8.07692 19.5 8.07692Z" fill="#FCFCFC"/>
</g>
<defs>
<clipPath id="clip0_67_34">
<rect width="28" height="28" fill="white"/>
</clipPath>
</defs>
</svg>
