<svg width="18" height="18" viewBox="0 0 18 18" fill="none" xmlns="http://www.w3.org/2000/svg">
<path d="M18 8.76675C18 7.57425 16.5068 6.444 14.217 5.7435C14.7457 3.41025 14.511 1.55325 13.476 0.9585C13.2252 0.81804 12.9414 0.747339 12.654 0.75375V1.57125C12.8228 1.57125 12.9585 1.605 13.0725 1.66725C13.5712 1.95375 13.788 3.04275 13.6193 4.4445C13.5788 4.7895 13.5128 5.1525 13.4318 5.523C12.665 5.33823 11.8868 5.20468 11.1023 5.12325C10.6349 4.47847 10.125 3.8656 9.576 3.28875C10.7723 2.17725 11.895 1.56825 12.6585 1.56825V0.75C11.649 0.75 10.3282 1.46925 8.9925 2.7165C7.6575 1.4775 6.336 0.765 5.32725 0.765V1.5825C6.087 1.5825 7.2135 2.1885 8.40975 3.2925C7.896 3.8325 7.38225 4.4445 6.894 5.12325C6.10788 5.20378 5.32826 5.3386 4.56075 5.52675C4.47964 5.17559 4.41581 4.82067 4.3695 4.46325C4.197 3.06075 4.41 1.97175 4.90575 1.68225C5.01525 1.61625 5.1585 1.58625 5.32725 1.58625V0.76875C5.01975 0.76875 4.74 0.83475 4.4985 0.9735C3.46725 1.56825 3.23625 3.42075 3.768 5.74725C1.48575 6.45225 0 7.578 0 8.76675C0 9.95925 1.49325 11.0895 3.783 11.7892C3.25425 14.1233 3.489 15.9803 4.524 16.5743C4.7625 16.7138 5.0415 16.7797 5.349 16.7797C6.3585 16.7797 7.67925 16.0605 9.015 14.8132C10.35 16.053 11.6707 16.7648 12.6803 16.7648C12.9698 16.7709 13.2558 16.6999 13.509 16.5592C14.5402 15.9653 14.7712 14.1128 14.2395 11.7863C16.5142 11.0858 18 9.9555 18 8.76675ZM13.2225 6.3195C13.08 6.80989 12.9148 7.29341 12.7275 7.7685C12.4209 7.17207 12.0842 6.59157 11.7188 6.02925C12.24 6.1065 12.7425 6.20175 13.2233 6.3195H13.2225ZM11.5425 10.227C11.2678 10.7066 10.9728 11.1743 10.6583 11.6287C9.55744 11.7258 8.45028 11.727 7.34925 11.6325C6.71771 10.7304 6.1654 9.77532 5.6985 8.778C6.16469 7.77833 6.71465 6.81991 7.3425 5.913C8.44304 5.81578 9.54995 5.81427 10.6508 5.9085C10.9552 6.345 11.253 6.8115 11.5387 7.3035C11.8177 7.7835 12.0712 8.271 12.3022 8.763C12.0687 9.26097 11.8152 9.74936 11.5425 10.227ZM12.7275 9.75C12.9255 10.2413 13.095 10.7332 13.2338 11.2102C12.7538 11.328 12.2467 11.427 11.7225 11.5035C12.0864 10.9361 12.4218 10.3508 12.7275 9.75ZM9.0075 13.665C8.66625 13.3125 8.325 12.9202 7.9875 12.4905C8.3175 12.5055 8.655 12.5167 8.99625 12.5167C9.34125 12.5167 9.6825 12.5092 10.0162 12.4905C9.68625 12.9202 9.345 13.3125 9.0075 13.665ZM6.2775 11.5035C5.77181 11.4302 5.26977 11.3336 4.773 11.214C4.90875 10.7407 5.0775 10.2525 5.268 9.765C5.41875 10.0575 5.577 10.3515 5.7495 10.6455C5.922 10.9388 6.0975 11.2253 6.2775 11.5035ZM8.98875 3.8685C9.33 4.221 9.67125 4.61325 10.0087 5.043C9.67875 5.028 9.34125 5.01675 9 5.01675C8.655 5.01675 8.31375 5.02425 7.98 5.043C8.31 4.61325 8.65125 4.221 8.98875 3.8685ZM6.27375 6.03C5.9099 6.5962 5.57449 7.18017 5.26875 7.77975C5.07616 7.30159 4.90721 6.81426 4.7625 6.3195C5.2425 6.2055 5.7495 6.1065 6.27375 6.03ZM2.9535 10.623C1.6545 10.0695 0.8145 9.34275 0.8145 8.76675C0.8145 8.19075 1.6545 7.46025 2.9535 6.9105C3.2685 6.77475 3.6135 6.65325 3.96975 6.54C4.179 7.2585 4.45425 8.007 4.79475 8.77425C4.47327 9.49589 4.20139 10.2386 3.981 10.9972C3.63259 10.8894 3.28968 10.7645 2.9535 10.623ZM4.9275 15.8655C4.42875 15.5805 4.212 14.49 4.38075 13.089C4.42125 12.744 4.48725 12.3802 4.56825 12.0098C5.28675 12.186 6.072 12.3218 6.89775 12.4103C7.36513 13.055 7.87501 13.6679 8.424 14.2448C7.22775 15.3562 6.105 15.9653 5.3415 15.9653C5.19746 15.9668 5.05525 15.9328 4.9275 15.8663V15.8655ZM13.6305 13.0702C13.803 14.472 13.59 15.5618 13.0942 15.8512C12.9847 15.9173 12.8415 15.9465 12.6727 15.9465C11.913 15.9465 10.7865 15.3413 9.59025 14.2365C10.1369 13.6621 10.6434 13.0506 11.106 12.4065C11.8921 12.326 12.6717 12.1912 13.4393 12.003C13.524 12.3735 13.5892 12.729 13.6305 13.0702ZM15.0427 10.623C14.7277 10.7587 14.3827 10.8802 14.0265 10.9935C13.8022 10.231 13.5266 9.48453 13.2015 8.75925C13.539 7.9965 13.8098 7.25175 14.0153 6.53625C14.3648 6.64449 14.7089 6.76938 15.0465 6.9105C16.3455 7.464 17.1855 8.19075 17.1855 8.76675C17.1817 9.34275 16.3417 10.0732 15.0427 10.623Z" fill="#FCFCFC"/>
<path d="M8.99624 10.4438C9.44101 10.4438 9.86756 10.2671 10.1821 9.95257C10.4966 9.63807 10.6732 9.21152 10.6732 8.76675C10.6732 8.32198 10.4966 7.89543 10.1821 7.58093C9.86756 7.26644 9.44101 7.08975 8.99624 7.08975C8.55148 7.08975 8.12492 7.26644 7.81043 7.58093C7.49593 7.89543 7.31924 8.32198 7.31924 8.76675C7.31924 9.21152 7.49593 9.63807 7.81043 9.95257C8.12492 10.2671 8.55148 10.4438 8.99624 10.4438Z" fill="#FCFCFC"/>
</svg>
